<svg width="83" height="32" viewBox="0 0 83 32" fill="none" xmlns="http://www.w3.org/2000/svg">
<path d="M3.32345 16.2065L15.6679 21.8991V24.29L1 17.0984V15.2578L15.6679 8.08508V10.476L3.32345 16.2065Z" fill="#000"/>
<path d="M52.9458 31H51.0125L61.7962 1H63.7117L52.9458 31Z" fill="#000"/>
<path d="M79.7275 16.1233L67.117 10.3738V8.03985L82.1041 15.2125V17.0531L67.117 24.2448V21.8918L79.7275 16.1233Z" fill="#000"/>
<path d="M17.1543 15.286L27.0137 4.73777M17.4722 15.2587L27.3316 25.8069M26.8236 25.7603L38.1647 4.74448M49.4588 26.1332L38.1176 5.11741M49.7583 26.4018L32.5295 15.846M3.32345 16.2065L15.6679 21.8991V24.29L1 17.0984V15.2578L15.6679 8.08508V10.476L3.32345 16.2065ZM52.9458 31H51.0125L61.7962 1H63.7117L52.9458 31ZM79.7275 16.1233L67.117 10.3738V8.03985L82.1041 15.2125V17.0531L67.117 24.2448V21.8918L79.7275 16.1233Z" stroke="#000" stroke-width="0.696145"/>
</svg>
